HIERARCHY
ROOT hip
{
  OFFSET 0 0 0
  CHANNELS 6 Xposition Yposition Zposition Zrotation Yrotation Xrotation
  JOINT abdomen
  {
    OFFSET 0 20.6881 -0.73152
    CHANNELS 3 Zrotation Xrotation Yrotation
    JOINT chest
    {
      OFFSET 0 11.7043 -0.48768
      CHANNELS 3 Zrotation Xrotation Yrotation
      JOINT neck
      {
        OFFSET 0 22.1894 -2.19456
        CHANNELS 3 Zrotation Xrotation Yrotation
        JOINT head
        {
          OFFSET -0.24384 7.07133 1.2192
          CHANNELS 3 Zrotation Xrotation Yrotation
          JOINT leftEye
          {
            OFFSET 4.14528 8.04674 8.04672
            CHANNELS 3 Zrotation Xrotation Yrotation
            End Site
            {
              OFFSET 1 0 0
            }
          }
          JOINT rightEye
          {
            OFFSET -3.6576 8.04674 8.04672
            CHANNELS 3 Zrotation Xrotation Yrotation
            End Site
            {
              OFFSET 1 0 0
            }
          }
        }
      }
      JOINT rCollar
      {
        OFFSET -2.68224 19.2634 -4.8768
        CHANNELS 3 Zrotation Xrotation Yrotation
        JOINT rShldr
        {
          OFFSET -8.77824 -1.95073 1.46304
          CHANNELS 3 Zrotation Xrotation Yrotation
          JOINT rForeArm
          {
            OFFSET -28.1742 -1.7115 0.48768
            CHANNELS 3 Zrotation Xrotation Yrotation
            JOINT rHand
            {
              OFFSET -22.5879 0.773209 7.07136
              CHANNELS 3 Zrotation Xrotation Yrotation
              JOINT rThumb1
              {
                OFFSET -1.2192 -0.487915 3.41376
                CHANNELS 3 Zrotation Xrotation Yrotation
                JOINT rThumb2
                {
                  OFFSET -3.37035 -0.52449 3.41376
                  CHANNELS 3 Zrotation Xrotation Yrotation
                  End Site
                  {
                    OFFSET -1.78271 -1.18214 1.43049
                  }
                }
              }
              JOINT rIndex1
              {
                OFFSET -7.75947 0.938293 5.60832
                CHANNELS 3 Zrotation Xrotation Yrotation
                JOINT rIndex2
                {
                  OFFSET -2.54057 -0.884171 1.56538
                  CHANNELS 3 Zrotation Xrotation Yrotation
                  End Site
                  {
                    OFFSET -1.62519 -0.234802 1.16502
                  }
                }
              }
              JOINT rMid1
              {
                OFFSET -8.24714 1.18213 3.41376
                CHANNELS 3 Zrotation Xrotation Yrotation
                JOINT rMid2
                {
                  OFFSET -3.10165 -0.590103 1.0647
                  CHANNELS 3 Zrotation Xrotation Yrotation
                  End Site
                  {
                    OFFSET -2.48547 -0.328903 0.83742
                  }
                }
              }
              JOINT rRing1
              {
                OFFSET -8.82822 0.546677 1.51678
                CHANNELS 3 Zrotation Xrotation Yrotation
                JOINT rRing2
                {
                  OFFSET -2.60934 -0.819778 -0.0198488
                  CHANNELS 3 Zrotation Xrotation Yrotation
                  End Site
                  {
                    OFFSET -2.33842 -0.294052 0.168128
                  }
                }
              }
              JOINT rPinky1
              {
                OFFSET -8.27202 -0.0477905 -0.4584
                CHANNELS 3 Zrotation Xrotation Yrotation
                JOINT rPinky2
                {
                  OFFSET -1.82734 -0.647385 -0.700984
                  CHANNELS 3 Zrotation Xrotation Yrotation
                  End Site
                  {
                    OFFSET -1.69225 -0.51767 -0.607171
                  }
                }
              }
            }
          }
        }
      }
      JOINT lCollar
      {
        OFFSET 2.68224 19.2634 -4.8768
        CHANNELS 3 Zrotation Xrotation Yrotation
        JOINT lShldr
        {
          OFFSET 8.77824 -1.95073 1.46304
          CHANNELS 3 Zrotation Xrotation Yrotation
          JOINT lForeArm
          {
            OFFSET 28.1742 -1.7115 0.48768
            CHANNELS 3 Zrotation Xrotation Yrotation
            JOINT lHand
            {
              OFFSET 22.5879 0.773209 7.07136
              CHANNELS 3 Zrotation Xrotation Yrotation
              JOINT lThumb1
              {
                OFFSET 1.2192 -0.487915 3.41376
                CHANNELS 3 Zrotation Xrotation Yrotation
                JOINT lThumb2
                {
                  OFFSET 3.37035 -0.52449 3.41376
                  CHANNELS 3 Zrotation Xrotation Yrotation
                  End Site
                  {
                    OFFSET 1.78271 -1.18214 1.43049
                  }
                }
              }
              JOINT lIndex1
              {
                OFFSET 7.75947 0.938293 5.60832
                CHANNELS 3 Zrotation Xrotation Yrotation
                JOINT lIndex2
                {
                  OFFSET 2.54057 -0.884171 1.56538
                  CHANNELS 3 Zrotation Xrotation Yrotation
                  End Site
                  {
                    OFFSET 1.62519 -0.234802 1.16502
                  }
                }
              }
              JOINT lMid1
              {
                OFFSET 8.24714 1.18213 3.41376
                CHANNELS 3 Zrotation Xrotation Yrotation
                JOINT lMid2
                {
                  OFFSET 3.10165 -0.590103 1.0647
                  CHANNELS 3 Zrotation Xrotation Yrotation
                  End Site
                  {
                    OFFSET 2.48547 -0.328903 0.83742
                  }
                }
              }
              JOINT lRing1
              {
                OFFSET 8.82822 0.546677 1.51678
                CHANNELS 3 Zrotation Xrotation Yrotation
                JOINT lRing2
                {
                  OFFSET 2.60934 -0.819778 -0.0198488
                  CHANNELS 3 Zrotation Xrotation Yrotation
                  End Site
                  {
                    OFFSET 2.33842 -0.294052 0.168128
                  }
                }
              }
              JOINT lPinky1
              {
                OFFSET 8.27202 -0.0477905 -0.4584
                CHANNELS 3 Zrotation Xrotation Yrotation
                JOINT lPinky2
                {
                  OFFSET 1.82734 -0.647385 -0.700984
                  CHANNELS 3 Zrotation Xrotation Yrotation
                  End Site
                  {
                    OFFSET 1.69225 -0.51767 -0.607171
                  }
                }
              }
            }
          }
        }
      }
    }
  }
  JOINT rButtock
  {
    OFFSET -8.77824 4.35084 1.2192
    CHANNELS 3 Zrotation Xrotation Yrotation
    JOINT rThigh
    {
      OFFSET 0 -1.70687 -2.19456
      CHANNELS 3 Zrotation Xrotation Yrotation
      JOINT rShin
      {
        OFFSET 0 -36.8199 0.73152
        CHANNELS 3 Zrotation Xrotation Yrotation
        JOINT rFoot
        {
          OFFSET 0.73152 -45.1104 -5.12064
          CHANNELS 3 Zrotation Xrotation Yrotation
          End Site
          {
            OFFSET -1.1221 -3.69964 12.103
          }
        }
      }
    }
  }
  JOINT lButtock
  {
    OFFSET 8.77824 4.35084 1.2192
    CHANNELS 3 Zrotation Xrotation Yrotation
    JOINT lThigh
    {
      OFFSET 0 -1.70687 -2.19456
      CHANNELS 3 Zrotation Xrotation Yrotation
      JOINT lShin
      {
        OFFSET 0 -36.8199 0.73152
        CHANNELS 3 Zrotation Xrotation Yrotation
        JOINT lFoot
        {
          OFFSET -0.73152 -45.1104 -5.12064
          CHANNELS 3 Zrotation Xrotation Yrotation
          End Site
          {
            OFFSET 1.1221 -3.69964 12.103
          }
        }
      }
    }
  }
}
MOTION
Frames:	4
Frame Time:	0.03333
0.02694721706211567 -0.10468292236328125 0.012976700440049171 -11.727988421916962 -5.272592268884182 -6.215122193098068 3.1524381414055824 4.994149133563042 3.256929963827133 -1.5023498609662056 -5.947873592376709 2.6296050287783146 -1.0729848593473434 5.882612764835358 -0.5985455866903067 8.02604578435421 -11.375121027231216 -3.9494474977254868 1.1790870130062103 2.787443809211254 -1.0740160010755062 -0.12824714183807373 2.5418389588594437 1.9490895420312881 -3.350125662982464 -2.377607971429825 1.3816043548285961 26.02035105228424 18.335564732551575 1.6166552156209946 -17.61925533413887 -15.530047863721848 37.72246956825256 0.7777054980397224 -3.153602220118046 -1.9139821082353592 0.09485700284130871 -0.6032952759414911 3.585592769086361 2.899218834936619 1.1618343740701675 -1.6183828935027122 0.7498321495950222 1.6053272411227226 2.774026058614254 4.148968309164047 0.33709801733493805 0.28029922395944595 -0.49139074981212616 -0.23533953353762627 2.306527756154537 0.743689052760601 2.47287031263113 -1.3657654076814651 -3.3222705870866776 3.838854990899563 -2.196517623960972 4.765176996588707 1.663539558649063 -1.4191155508160591 -3.2028573006391525 0.1413443684577942 0.3470770502462983 1.4251676201820374 -1.8289119936525822 -4.294911324977875 -1.5619596093893051 1.6999616101384163 1.4411069825291634 -31.836442351341248 15.161814093589783 -18.571690320968628 13.27630028128624 -8.821212127804756 -33.4088659286499 0.6011779233813286 -8.576176911592484 0.5509012565016747 -1.961229220032692 -0.8359493315219879 0.015324298292398453 1.8474391847848892 -3.5640693828463554 -2.7408474683761597 -2.3927627876400948 1.69083371758461 1.3819270581007004 -7.534535005688667 1.3870333135128021 -0.7904591504484415 -2.745348885655403 1.0413458570837975 -1.6449816897511482 -2.187421750277281 -0.21351490169763565 -2.4979345500469208 -2.0009976625442505 2.3709596134722233 0.8942069951444864 -10.499686226248741 2.665898837149143 -2.2531015053391457 -2.469133995473385 0.30012644827365875 1.5737804397940636 -4.782060161232948 1.6841986030340195 -0.7992448937147856 0.778992623090744 0.301797715947032 -2.8601350262761116 -18.78088653087616 -15.932839214801788 -12.22031056880951 -6.682855188846588 36.697490215301514 16.170957684516907 -3.930090330541134 -9.993409216403961 -5.114329196512699 -2.3972102254629135 -4.312310479581356 1.3040046952664852 21.48992031812668 -22.870171666145325 16.88574492931366 16.05367809534073 31.812291741371155 -5.046156160533428 5.80802857875824 -7.842497527599335 6.126427575945854
0.046798890456557274 -0.26583555340766907 0.05547807924449444 -14.203680753707886 -3.6428026109933853 -3.255710229277611 1.4397122338414192 9.19569544494152 3.379437178373337 0.6586901843547821 -7.883478999137878 2.061663866043091 -3.78030639141798 11.4456108212471 -0.8800653833895922 8.517755717039108 -17.912019789218903 -4.0158432349562645 0.42575156316161156 0.906146764755249 -1.0181685537099838 -0.12383784167468548 0.5773709714412689 1.3459334895014763 -1.6787034273147583 -0.8811059966683388 0.8892092015594244 38.68065387010574 26.30653738975525 6.098611727356911 -20.68030759692192 -22.77027279138565 52.18725800514221 -2.48247429728508 -8.694939762353897 -3.9354651421308517 -0.13107447302900255 0.4589088633656502 0.49161404371261597 1.7456418089568615 0.9924379549920559 -0.8189119398593903 0.34541571512818336 0.2506812661886215 0.5151953548192978 6.145917177200317 3.7133051455020905 -0.7534968014806509 -0.08563421666622162 0.19139321520924568 0.8581027016043663 1.3278009183704853 0.6156977266073227 0.34016814082860947 -0.6716338545084 2.2644217684865 -1.212661899626255 8.030786588788033 1.8887306191027164 -0.38884688168764114 -1.2654722481966019 -0.3369481489062309 1.1558205261826515 2.722797207534313 -0.9554129093885422 -2.3336774110794067 -0.3252798691391945 -0.5966134741902351 1.233448013663292 -44.7653603553772 23.346025049686432 -23.55604737997055 18.634940832853317 -16.779674291610718 -45.54280400276184 3.416527770459652 -8.260098695755005 2.1560578420758247 -0.5482643097639084 -0.6628469377756119 0.07826300337910652 0.2872578799724579 -1.3380514830350876 -0.8098467439413071 -0.7707099616527557 0.07240757346153259 0.70020642131567 -8.01806889474392 2.8344012424349785 -0.5628986936062574 -0.8427299559116364 0.15956444665789604 -0.05666501820087433 -2.945065498352051 0.7594165205955505 -1.3805323094129562 -0.18318213522434235 1.620677188038826 1.0588429123163223 -11.090800166130066 1.641102209687233 -1.0767818614840508 -0.4821384698152542 0.5775113683193922 0.7921302504837513 -3.2628492638468742 -0.029418468475341797 -1.7148847505450249 0.3522602515295148 -0.1652849279344082 -1.3292095810174942 -25.60037076473236 -23.70138555765152 -19.395471811294556 -12.795213907957077 50.019121170043945 18.46515566110611 -3.291124105453491 -10.762348920106888 -7.827078849077225 -0.21265927702188492 -2.424647882580757 -0.34721095114946365 31.44620507955551 -28.4161376953125 26.871820986270905 19.714491069316864 46.00570499897003 -13.24453353881836 4.714750796556473 -9.208411127328873 10.98199836909771
0.4038035925477743 -0.5867244005203247 -0.045420678332448006 20.258692502975464 -2.789407856762409 34.94816154241562 -0.5826679989695549 10.952939316630363 3.0305977910757065 5.2229999005794525 -8.431676253676414 1.1151532083749771 -5.625181049108505 14.88566592335701 -5.5940670892596245 8.517427146434784 -22.90177881717682 -6.680348664522171 0.015361178666353226 -1.10540471971035 -0.7888477295637131 2.075110115110874 1.1537760123610497 1.4299164712429047 0.5010909587144852 -1.1398952454328537 -1.7476851493120193 47.8324556350708 29.80262517929077 8.19113977253437 -20.785531997680664 -27.13369309902191 57.94716775417328 -5.316036343574524 -12.96510636806488 -5.236146077513695 0.5389462318271399 0.692936796694994 0.0025782734155654907 0.837693102657795 -0.7074140198528767 -1.2319893948733807 2.505571134388447 1.7485074140131474 2.976069152355194 6.195959150791168 2.935563772916794 -1.7715946957468987 1.200659852474928 -0.9186131693422794 -0.09666580706834793 4.864434488117695 2.4682019278407097 0.3427967056632042 2.09442637860775 -1.0354802012443542 -2.779210265725851 10.99061094224453 3.4693485125899315 2.9146921634674072 0.7986880838871002 -0.9399499744176865 0.03924619755707681 1.3739930838346481 0.9725233912467957 -0.20628668367862701 -0.832795724272728 2.111170068383217 -1.3926332630217075 -59.389488101005554 29.630207419395447 -23.484692573547363 19.295712411403656 -21.66806995868683 -51.95810079574585 4.942995049059391 -7.803850919008255 2.0077048614621162 0.0042291730642318726 1.9330853037536144 1.9677520170807838 1.3779587298631668 0.06873831152915955 1.2563560903072357 0.6314939260482788 0.1949845254421234 0.35615913569927216 -9.016861841082573 4.834361560642719 0.002817995846271515 1.4961455762386322 0.04527200013399124 0.4417276382446289 -5.02764455974102 1.93190798163414 0.01898333430290222 0.011569038033485413 2.4215616658329964 0.3108080942183733 -10.624081045389175 2.082498259842396 -2.9378027468919754 -0.054642632603645325 1.3709669653326273 1.8614471890032291 -4.691571146249771 -0.9418013691902161 -0.7422950584441423 0.8826896734535694 0.3979782946407795 1.208689883351326 -29.16268229484558 -30.114153027534485 -21.786682605743408 -6.305068731307983 54.999656081199646 10.205514281988144 -5.840337127447128 -9.232668355107307 -11.566031277179718 -1.4805042743682861 0.9774090349674225 0.6209095939993858 30.681740641593933 -30.486921072006226 23.814108073711395 1.934087947010994 53.686586022377014 -2.5783200189471245 6.50579921901226 -10.718943402171135 14.633402824401855
1.3450924810022116 -0.8088043928146362 -0.19655482657253742 99.72354412078857 3.3275344222784042 129.53830361366272 -3.799346722662449 10.65321184694767 -0.12191813439130783 9.392153173685074 -6.865518316626549 3.15382719039917 -6.238827556371689 16.13064005970955 -8.548543453216553 8.678249716758728 -26.17632955312729 -10.942991003394127 -0.8107127621769905 0.07083244621753693 0.5308326333761215 2.3714764416217804 4.677830524742603 1.2805714085698128 3.9071624726057053 -4.165349900722504 -3.4939084947109222 44.684534668922424 27.160756587982178 10.824347510933876 -17.18217059969902 -27.1218404173851 56.2116014957428 -9.149525910615921 -16.635034829378128 -7.065993323922157 1.730269230902195 -1.0070658847689629 -0.2548185735940933 0.3664672002196312 -3.6109547317028046 -0.11553850024938583 4.4779955595731735 3.5933715105056763 4.479086883366108 3.651634119451046 0.3252258896827698 -1.109280427917838 2.8042087890207767 0.203907061368227 0.2627729997038841 7.475333288311958 6.035326346755028 2.080490291118622 0.32300569117069244 -4.021912068128586 -1.9062824919819832 10.564079359173775 4.731165915727615 3.415723443031311 0.1974615454673767 -3.907959759235382 -1.4876136370003223 0.5611231550574303 2.0918548107147217 -1.128624603152275 0.5546167865395546 5.029543898999691 -4.160655364394188 -62.28791534900665 30.886999368667603 -24.722969233989716 15.861403942108154 -22.205056250095367 -51.16809368133545 3.4823639318346977 -7.6080577075481415 -3.7192371860146523 2.2580941021442413 5.073333978652954 3.5434549301862717 3.4194155037403107 -0.8130781352519989 5.028195083141327 1.367722749710083 0.7784052193164825 -0.6313487514853477 -9.592751562595367 6.984124928712845 -0.1885792426764965 2.2148052603006363 1.8847627937793732 1.5816054493188858 -5.266331657767296 2.142512686550617 -0.3724200278520584 -3.9462771266698837 5.32171256840229 -0.40179348550736904 -9.294016510248184 3.501158505678177 -6.717919707298279 -0.3780975937843323 0.30160694383084774 5.554530993103981 -8.990911468863487 1.6875319182872772 0.32038978300988674 1.5769823268055916 2.0524335466325283 4.738238900899887 -30.50482213497162 -36.76909178495407 -18.180699348449707 5.389887280762196 52.05047607421875 -5.1443226635456085 -9.294644817709923 -4.866891726851463 -13.212129771709442 -2.9552290588617325 0.6621696799993515 0.4669896885752678 21.025450229644775 -26.186342239379883 11.693371832370758 -15.941577851772308 48.977437019348145 11.817542016506195 5.720929205417633 -10.24038165807724 15.53579181432724
